HIERARCHY
ROOT root
{
	OFFSET 0.000000 0.000000 0.000000
	CHANNELS 6 Xposition Yposition Zposition Zrotation Yrotation Xrotation
	JOINT lhip
	{
		OFFSET 0.058581 -0.082280 -0.017664
		CHANNELS 3 Zrotation Yrotation Xrotation
		JOINT lknee
		{
			OFFSET 0.043451 -0.386469 0.008037
			CHANNELS 3 Zrotation Yrotation Xrotation
			JOINT lankle
			{
				OFFSET -0.014790 -0.426874 -0.037428
				CHANNELS 3 Zrotation Yrotation Xrotation
				JOINT ltoe
				{
					OFFSET 0.041054 -0.060286 0.122042
					CHANNELS 3 Zrotation Yrotation Xrotation
					End Site
					{
						OFFSET 0.000000 0.000000 0.000000
					}
				}
			}
		}
	}
	JOINT rhip
	{
		OFFSET -0.060310 -0.090513 -0.013543
		CHANNELS 3 Zrotation Yrotation Xrotation
		JOINT rknee
		{
			OFFSET -0.043257 -0.383688 -0.004843
			CHANNELS 3 Zrotation Yrotation Xrotation
			JOINT rankle
			{
				OFFSET 0.019056 -0.420046 -0.034562
				CHANNELS 3 Zrotation Yrotation Xrotation
				JOINT rtoe
				{
					OFFSET -0.034840 -0.062106 0.130323
					CHANNELS 3 Zrotation Yrotation Xrotation
					End Site
					{
						OFFSET 0.000000 0.000000 0.000000
					}
				}
			}
		}
	}
	JOINT lowerback
	{
		OFFSET 0.004439 0.124404 -0.038385
		CHANNELS 3 Zrotation Yrotation Xrotation
		JOINT upperback
		{
			OFFSET 0.004488 0.137956 0.026820
			CHANNELS 3 Zrotation Yrotation Xrotation
			JOINT chest
			{
				OFFSET -0.002265 0.056032 0.002855
				CHANNELS 3 Zrotation Yrotation Xrotation
				JOINT lowerneck
				{
					OFFSET -0.013390 0.211636 -0.033468
					CHANNELS 3 Zrotation Yrotation Xrotation
					JOINT upperneck
					{
						OFFSET 0.010113 0.088937 0.050410
						CHANNELS 3 Zrotation Yrotation Xrotation
						End Site
						{
							OFFSET 0.000000 0.000000 0.000000
						}
					}
				}
				JOINT lclavicle
				{
					OFFSET 0.071702 0.114000 -0.018898
					CHANNELS 3 Zrotation Yrotation Xrotation
					JOINT lshoulder
					{
						OFFSET 0.122921 0.045205 -0.019046
						CHANNELS 3 Zrotation Yrotation Xrotation
						JOINT lelbow
						{
							OFFSET 0.255332 -0.015649 -0.022946
							CHANNELS 3 Zrotation Yrotation Xrotation
							JOINT lwrist
							{
								OFFSET 0.265709 0.012698 -0.007375
								CHANNELS 3 Zrotation Yrotation Xrotation
								End Site
								{
									OFFSET 0.000000 0.000000 0.000000
								}
							}
						}
					}
				}
				JOINT rclavicle
				{
					OFFSET -0.082954 0.112472 -0.023707
					CHANNELS 3 Zrotation Yrotation Xrotation
					JOINT rshoulder
					{
						OFFSET -0.113228 0.046853 -0.008472
						CHANNELS 3 Zrotation Yrotation Xrotation
						JOINT relbow
						{
							OFFSET -0.260127 -0.014369 -0.031269
							CHANNELS 3 Zrotation Yrotation Xrotation
							JOINT rwrist
							{
								OFFSET -0.269108 0.006794 -0.006027
								CHANNELS 3 Zrotation Yrotation Xrotation
								End Site
								{
									OFFSET 0.000000 0.000000 0.000000
								}
							}
						}
					}
				}
			}
		}
	}
}
MOTION
Frames: 8
Frame Time: 0.033333
0.022177 0.046591 0.826237 -167.879817 -4.654542 95.963720 11.964805 16.397756 -48.492179 3.512211 15.754887 53.183105 -5.722842 13.729106 -10.512754 0.000000 -0.000000 0.000000 -13.109393 -12.087631 -47.188149 -3.578866 -7.588430 72.902977 3.253055 -9.148865 -30.690384 0.000000 -0.000000 0.000000 0.000163 3.499147 67.471665 0.272928 -1.642627 -9.302750 4.570086 -2.746489 -3.502071 -1.688098 -3.401347 -22.348671 4.849366 -11.951352 -2.077433 -25.766111 -24.900699 2.968919 -12.305878 -14.747155 -2.466521 10.323743 -55.173594 -12.917900 13.674936 -15.406244 -22.727870 27.854702 31.252067 5.242099 19.923470 23.948989 -4.023144 -20.746180 40.265034 -37.482807 -21.015287 18.276892 -20.775264 
0.032414 0.045142 0.826028 -168.095470 -4.929617 95.949442 12.346833 16.668000 -48.015679 3.213958 15.743254 52.153851 -6.150673 13.632346 -10.377538 0.000000 -0.000000 0.000000 -12.702873 -11.813745 -47.644401 -3.497250 -7.767091 73.158479 2.929414 -9.231567 -31.117743 0.000000 -0.000000 0.000000 0.041917 3.213532 66.991230 0.174467 -1.438278 -9.016819 4.413032 -2.789390 -3.671647 -1.728220 -3.346415 -22.421841 4.489163 -12.080888 -0.795419 -25.503908 -24.727263 2.875031 -12.971624 -14.883139 -2.337843 10.131656 -55.433850 -12.577382 14.118032 -15.517493 -23.054795 27.246711 31.115413 5.073819 20.644030 24.108823 -4.006799 -20.495655 40.224583 -37.477278 -22.610480 18.741855 -21.145808 
0.041661 0.043549 0.825811 -168.265102 -5.142819 95.893172 12.751564 16.886184 -47.562856 2.870263 15.746156 51.231716 -6.525560 13.115928 -9.952542 0.000000 -0.000000 0.000000 -12.280759 -11.501236 -47.993887 -3.990431 -8.032761 73.382143 2.700011 -8.973447 -31.310168 0.000000 -0.000000 0.000000 0.080104 2.816788 66.549747 0.225203 -1.285407 -9.074692 4.369273 -2.774215 -3.623292 -1.991129 -3.322563 -21.741848 3.779982 -11.886646 0.185500 -25.991133 -24.471400 3.175271 -13.358265 -15.051469 -2.250621 10.553744 -55.484806 -12.659404 14.021765 -15.565696 -22.911169 27.752706 30.913941 5.648061 19.751977 24.316989 -4.437456 -19.973279 40.192178 -36.514494 -22.696467 18.286501 -21.734377 
0.049742 0.041489 0.825976 -168.396514 -5.546262 95.914392 12.787952 16.861446 -47.205760 2.427307 15.695974 50.097848 -6.580487 13.195525 -9.375030 0.000000 -0.000000 0.000000 -12.264848 -11.318965 -48.385149 -3.968399 -8.334242 73.531189 2.456333 -9.079983 -31.350692 0.000000 -0.000000 0.000000 0.258097 2.054525 66.278237 0.082450 -1.224534 -9.100054 4.061456 -2.782853 -3.590367 -2.188853 -3.630548 -21.589011 3.496073 -11.854875 1.187241 -25.981496 -24.305345 2.965412 -14.100402 -15.105429 -1.980134 10.665587 -55.672578 -12.645972 14.422402 -15.425964 -22.969078 27.054428 30.900269 5.461929 20.521479 24.432688 -4.411115 -20.398195 40.260976 -36.937780 -22.908635 18.211613 -21.711561 
0.057689 0.039916 0.825790 -168.942698 -5.933343 95.719779 13.022241 17.117140 -46.443667 2.001375 15.683934 49.214441 -6.929232 12.653252 -9.287222 0.000000 -0.000000 0.000000 -12.239727 -10.772635 -48.654160 -3.878601 -8.485398 73.725507 2.267516 -8.943026 -31.636388 0.000000 -0.000000 0.000000 0.333234 1.699893 65.955963 -0.028581 -1.134059 -8.605137 3.851236 -2.823301 -3.902304 -2.407359 -3.830625 -21.038458 3.222074 -11.613072 1.955573 -26.336098 -24.231589 3.147537 -14.610913 -15.029338 -1.830605 11.058459 -55.725585 -12.755207 14.321094 -15.569625 -22.954264 26.972927 30.962966 5.595318 20.675380 24.429566 -4.713119 -20.367154 40.135722 -36.822808 -22.574346 18.572299 -21.445429 
0.065932 0.038306 0.825454 -169.549639 -6.406345 95.849824 13.293286 17.210159 -45.897224 1.753197 15.990092 48.332853 -7.244692 12.053610 -9.742361 0.000000 -0.000000 0.000000 -12.159553 -10.013767 -49.367184 -3.785618 -8.521322 73.969848 2.018692 -9.539847 -31.804715 0.000000 -0.000000 0.000000 0.089558 1.597964 65.350610 -0.008649 -0.992201 -8.439323 3.884949 -2.951953 -3.905648 -2.333026 -3.884817 -20.767553 2.694091 -11.637975 2.688833 -26.870050 -23.720081 3.704960 -14.913209 -15.586087 -2.039958 10.735309 -55.709121 -12.297157 15.157275 -15.712080 -23.158457 27.521511 30.689874 6.276829 19.778915 25.125184 -5.086467 -19.774042 40.474025 -36.017289 -27.138607 20.299151 -22.824918 
0.072868 0.036298 0.826158 -170.085062 -7.038944 95.908708 13.104787 16.911286 -45.458256 1.252050 15.712708 47.414068 -7.046636 12.398890 -9.903616 0.000000 -0.000000 0.000000 -12.225930 -9.478398 -49.781278 -3.692813 -8.354022 73.865958 1.877233 -9.879616 -31.862611 0.000000 -0.000000 0.000000 0.008079 1.431048 65.106902 0.115412 -1.222712 -8.614587 3.893821 -3.087311 -3.776385 -2.331339 -4.248008 -20.544520 2.530824 -11.520749 3.184254 -27.256964 -23.726670 3.875389 -15.641813 -15.551785 -1.534034 11.573040 -55.553786 -12.755286 14.994967 -15.535462 -23.175919 27.124473 30.738230 5.874204 20.262714 24.906787 -4.510222 -19.871878 40.099249 -36.008373 -23.860086 18.624908 -22.336218 
0.079100 0.034316 0.826377 -171.136180 -7.309991 95.987164 13.437221 17.213565 -44.752132 0.990754 15.822672 46.790431 -7.376578 11.610217 -10.291578 0.000000 -0.000000 0.000000 -12.041008 -8.485897 -50.235626 -3.585497 -8.270239 73.739504 1.628787 -10.096250 -31.917087 0.000000 -0.000000 0.000000 -0.240274 1.376002 64.670224 0.070069 -1.068072 -8.394143 3.931721 -2.943369 -3.811590 -2.058835 -4.476996 -20.220446 2.463777 -11.988473 3.777812 -27.491520 -23.725895 4.396873 -16.586347 -15.863176 -1.270622 12.405486 -55.368955 -13.405388 15.400008 -15.254153 -23.140795 27.110546 30.669118 6.151994 20.011708 24.943410 -4.859838 -19.618283 40.273069 -35.246172 -24.321542 18.641724 -22.898103 
